#!OML:ASF I:\Actors\actors\Patient Classification 2\Patient 1\Session 1\actor1.ASF
:FULLY-SPECIFIED
:DEGREES
681
root -1.35907 18.2043 6.24298 2.80732 4.08387 -6.50171
lowerback 11.1094 2.09823 4.43631
upperback -1.22585 3.40477 0.0264736
thorax -7.28456 1.48198 -3.04865
lowerneck -11.6109 -10.7852 -6.39987
upperneck 16.7341 -15.0856 7.67982
head 8.1727 -6.91188 1.8655
rclavicle 1.77415e-014 -1.74931e-014
rhumerus -7.34891 -3.90355 -50.9758
rradius 106.548
rwrist -48.4751
rhand -7.88625 -33.848
rfingers 7.12502
rthumb 18.0183 -63.0334
lclavicle 1.77415e-014 -1.74931e-014
lhumerus -43.3465 -9.68198 83.0724
lradius 80.86
lwrist 20.2346
lhand -6.01106 -13.6753
lfingers 7.12502
lthumb 19.8217 15.3339
rfemur 8.1383 -7.40601 23.9034
rtibia 1.59028e-015
rfoot -17.4281 -10.0328
rtoes 3.01163
lfemur 16.3204 -7.06859 -8.69225
ltibia -22.644
lfoot 1.90351 14.8935
ltoes -15.7676
682
root -1.37694 18.1907 6.26554 2.43121 4.1608 -6.55382
lowerback 10.9456 2.05348 4.13898
upperback -1.1603 3.30289 0.1381
thorax -7.15163 1.45178 -2.73722
lowerneck -11.5411 -10.7893 -6.60108
upperneck 17.4563 -15.1762 7.91022
head 8.44526 -6.92749 1.94715
rclavicle 8.15017e-015 0
rhumerus -8.8077 -3.44054 -52.4973
rradius 107.113
rwrist -51.6031
rhand -6.67818 -33.9389
rfingers 7.12502
rthumb 19.1803 -63.0131
lclavicle 8.15017e-015 0
lhumerus -43.4448 -9.65476 83.2639
lradius 80.5996
lwrist 20.2267
lhand -5.90227 -13.7157
lfingers 7.12502
lthumb 19.9263 15.2827
rfemur 8.71105 -7.51934 23.98
rtibia 2.38542e-014
rfoot -17.6494 -9.88976
rtoes 3.1012
lfemur 16.7932 -6.91124 -8.57222
ltibia -22.5903
lfoot 1.82191 14.5481
ltoes -15.8259
683
root -1.37995 18.1837 6.2794 2.20323 3.99111 -6.57777
lowerback 10.7831 2.07138 4.00408
upperback -1.16942 3.30571 0.198748
thorax -7.07933 1.46195 -2.59024
lowerneck -11.3858 -10.7962 -6.68347
upperneck 18.083 -15.2487 7.946
head 8.64461 -6.95081 1.95872
rclavicle 2.66868e-014 1.43125e-014
rhumerus -9.76183 -2.86782 -53.7868
rradius 107.706
rwrist -54.6199
rhand -5.6964 -34.4902
rfingers 7.12502
rthumb 20.1242 -63.468
lclavicle 2.66868e-014 1.43125e-014
lhumerus -43.583 -9.61697 83.4648
lradius 80.3215
lwrist 20.1935
lhand -5.80632 -13.7938
lfingers 7.12502
lthumb 20.0185 15.195
rfemur 9.03032 -7.36912 23.9865
rtibia -1.59028e-014
rfoot -17.716 -9.84276
rtoes 3.2375
lfemur 17.1325 -6.79392 -8.56165
ltibia -22.5272
lfoot 1.66869 14.5169
ltoes -15.6832
684
root -1.37406 18.1806 6.28846 2.07205 3.72602 -6.48031
lowerback 10.6021 2.11137 3.89703
upperback -1.19988 3.33615 0.180287
thorax -7.01119 1.48241 -2.54635
lowerneck -11.2063 -10.8167 -6.69494
upperneck 18.6131 -15.3261 7.89215
head 8.79482 -6.98403 1.93346
rclavicle -5.08392e-014 -1.11319e-014
rhumerus -10.5701 -2.29442 -54.9659
rradius 108.391
rwrist -57.4808
rhand -5.09638 -35.1692
rfingers 7.12502
rthumb 20.7008 -64.0851
lclavicle -5.08392e-014 -1.11319e-014
lhumerus -43.7089 -9.60039 83.6514
lradius 80.0589
lwrist 20.1134
lhand -5.81181 -13.7835
lfingers 7.12502
lthumb 20.0133 15.2059
rfemur 9.20817 -7.11312 23.8371
rtibia 1.27222e-014
rfoot -17.7375 -9.82771
rtoes 3.52195
lfemur 17.3681 -6.72158 -8.73271
ltibia -22.4435
lfoot 1.4529 14.6392
ltoes -15.4824
685
root -1.36759 18.1764 6.29567 1.93347 3.47573 -6.42393
lowerback 10.432 2.14592 3.88508
upperback -1.20966 3.37125 0.153365
thorax -6.92125 1.5021 -2.56509
lowerneck -11.0048 -10.8332 -6.8315
upperneck 19.0985 -15.4253 8.07412
head 8.9596 -7.01508 2.00235
rclavicle 3.32964e-014 1.59028e-014
rhumerus -12.1096 -2.34235 -56.776
rradius 109.471
rwrist -59.4669
rhand -4.12782 -35.9186
rfingers 7.12502
rthumb 21.6312 -64.7303
lclavicle 3.32964e-014 1.59028e-014
lhumerus -43.7789 -9.61473 83.8373
lradius 79.8029
lwrist 20.0473
lhand -5.77829 -13.701
lfingers 7.12502
lthumb 20.0455 15.285
rfemur 9.3812 -6.87022 23.7307
rtibia -6.36111e-015
rfoot -17.7762 -9.81863
rtoes 3.74019
lfemur 17.5796 -6.66896 -8.86419
ltibia -22.3238
lfoot 1.23031 14.7405
ltoes -15.4029
686
root -1.36193 18.1726 6.2997 1.78597 3.17633 -6.35708
lowerback 10.2983 2.18206 3.82035
upperback -1.20515 3.40453 0.147126
thorax -6.84114 1.52319 -2.5335
lowerneck -10.8372 -10.8133 -7.04255
upperneck 19.5977 -15.492 8.3859
head 9.15175 -7.02179 2.12826
rclavicle -9.44227e-016 8.74653e-015
rhumerus -13.3188 -1.82416 -57.8657
rradius 110.146
rwrist -61.4478
rhand -3.68694 -36.4602
rfingers 7.12502
rthumb 22.0546 -65.2226
lclavicle -9.44227e-016 8.74653e-015
lhumerus -43.8106 -9.58959 84.0078
lradius 79.5119
lwrist 19.9696
lhand -5.68586 -13.6653
lfingers 7.12502
lthumb 20.1343 15.3113
rfemur 9.55188 -6.5809 23.6223
rtibia 0
rfoot -17.7781 -9.82423
rtoes 3.75794
lfemur 17.8158 -6.60593 -9.01044
ltibia -22.2314
lfoot 1.06257 14.8824
ltoes -15.4137
687
root -1.35605 18.1699 6.3037 1.67705 2.88285 -6.27395
lowerback 10.1166 2.21609 3.71634
upperback -1.21374 3.42814 0.134147
thorax -6.75014 1.54106 -2.48337
lowerneck -10.5824 -10.7615 -7.16346
upperneck 20.0345 -15.5261 8.67322
head 9.29511 -7.01444 2.24478
rclavicle 6.50523e-014 2.62396e-014
rhumerus -13.8393 -0.653155 -58.1089
rradius 110.257
rwrist -63.3672
rhand -3.74209 -36.8079
rfingers 7.12502
rthumb 22.0016 -65.5765
lclavicle 6.50523e-014 2.62396e-014
lhumerus -43.8467 -9.599 84.1468
lradius 79.2009
lwrist 19.914
lhand -5.59597 -13.6324
lfingers 7.12502
lthumb 20.2207 15.3352
rfemur 9.683 -6.29523 23.5044
rtibia 7.95139e-015
rfoot -17.7669 -9.83448
rtoes 3.68992
lfemur 18.0311 -6.55148 -9.16868
ltibia -22.1841
lfoot 0.91241 15.0593
ltoes -15.2162
688
root -1.34996 18.1659 6.30954 1.59085 2.69606 -6.3941
lowerback 9.90386 2.22194 3.83705
upperback -1.25669 3.44524 0.171305
thorax -6.66913 1.54757 -2.50465
lowerneck -10.3337 -10.7218 -7.13795
upperneck 20.6102 -15.5696 8.74528
head 9.45799 -7.01755 2.2661
rclavicle -5.04416e-014 -2.22639e-014
rhumerus -14.8552 0.215896 -58.4768
rradius 110.65
rwrist -64.4024
rhand -3.3418 -37.1578
rfingers 7.12502
rthumb 22.3859 -65.8807
lclavicle -5.04416e-014 -2.22639e-014
lhumerus -43.9299 -9.63614 84.3075
lradius 78.906
lwrist 19.8899
lhand -5.42778 -13.5684
lfingers 7.12502
lthumb 20.3824 15.3819
rfemur 9.78427 -6.1108 23.6107
rtibia -2.22639e-014
rfoot -17.7798 -9.85293
rtoes 3.54208
lfemur 18.1877 -6.45139 -9.06851
ltibia -22.1356
lfoot 0.76674 15.0955
ltoes -14.8763
689
root -1.34332 18.1614 6.31126 1.45681 2.45054 -6.45288
lowerback 9.81592 2.23093 3.86177
upperback -1.28117 3.46132 0.235311
thorax -6.64668 1.5562 -2.44981
lowerneck -10.6452 -10.7817 -6.98261
upperneck 21.8036 -15.702 8.33586
head 9.89841 -7.05956 2.05602
rclavicle -4.25896e-014 4.77083e-015
rhumerus -15.915 1.01222 -58.7561
rradius 111.161
rwrist -65.0876
rhand -2.71297 -37.5741
rfingers 7.12502
rthumb 22.9894 -66.2232
lclavicle -4.25896e-014 4.77083e-015
lhumerus -44.0301 -9.5623 84.5078
lradius 78.6474
lwrist 19.777
lhand -5.2317 -13.5332
lfingers 7.12502
lthumb 20.5708 15.3969
rfemur 9.92373 -5.8719 23.6442
rtibia 3.97569e-014
rfoot -17.7788 -9.87302
rtoes 3.53298
lfemur 18.4013 -6.25822 -9.03937
ltibia -22.0981
lfoot 0.669073 15.0953
ltoes -14.9541
690
root -1.33334 18.1575 6.31414 1.27077 2.14189 -6.28631
lowerback 9.73874 2.2509 3.67865
upperback -1.2408 3.46186 0.247124
thorax -6.57075 1.56614 -2.3299
lowerneck -11.1972 -10.8941 -6.93956
upperneck 23.1629 -15.9223 8.03466
head 10.4808 -7.1249 1.86712
rclavicle 2.39039e-014 -7.95139e-016
rhumerus -17.0428 1.73287 -58.8613
rradius 111.788
rwrist -65.8852
rhand -1.90405 -38.0365
rfingers 7.12502
rthumb 23.7654 -66.5868
lclavicle 2.39039e-014 -7.95139e-016
lhumerus -44.1179 -9.46714 84.6984
lradius 78.4196
lwrist 19.5984
lhand -5.15442 -13.4374
lfingers 7.12502
lthumb 20.645 15.4846
rfemur 10.1383 -5.57006 23.4063
rtibia 2.06736e-014
rfoot -17.7669 -9.87006
rtoes 3.59366
lfemur 18.7118 -6.10289 -9.3109
ltibia -22.0687
lfoot 0.564899 15.1775
ltoes -15.3127
691
root -1.32304 18.1527 6.32289 1.09885 1.9624 -6.20814
lowerback 9.54565 2.23197 3.60747
upperback -1.1883 3.41911 0.261059
thorax -6.41259 1.55296 -2.25786
lowerneck -11.4491 -10.9399 -7.06606
upperneck 24.2124 -16.1225 8.20386
head 10.9635 -7.16398 1.88707
rclavicle 2.80783e-014 -5.96354e-015
rhumerus -18.7063 2.2102 -58.9315
rradius 112.789
rwrist -66.5741
rhand -0.711193 -38.5878
rfingers 7.12502
rthumb 24.909 -66.9847
lclavicle 2.80783e-014 -5.96354e-015
lhumerus -44.2392 -9.45719 84.8458
lradius 78.2031
lwrist 19.499
lhand -5.08359 -13.3222
lfingers 7.12502
lthumb 20.7131 15.5924
rfemur 10.3616 -5.39161 23.2587
rtibia -1.90833e-014
rfoot -17.7849 -9.84448
rtoes 3.59557
lfemur 18.9685 -5.97734 -9.47775
ltibia -21.9979
lfoot 0.444586 15.1665
ltoes -15.5812
692
root -1.31403 18.1478 6.32754 0.954767 1.80048 -6.18713
lowerback 9.42193 2.21004 3.56628
upperback -1.1691 3.38136 0.294739
thorax -6.32851 1.53902 -2.18742
lowerneck -11.5922 -10.9357 -7.11886
upperneck 25.1608 -16.267 8.37515
head 11.3856 -7.17686 1.91498
rclavicle 4.10739e-014 3.26007e-014
rhumerus -18.6921 3.751 -57.7512
rradius 112.801
rwrist -67.8422
rhand -0.294381 -38.8149
rfingers 7.12502
rthumb 25.3084 -67.1559
lclavicle 4.10739e-014 3.26007e-014
lhumerus -44.3663 -9.43912 84.9585
lradius 77.9972
lwrist 19.4596
lhand -4.8146 -13.2014
lfingers 7.12502
lthumb 20.9715 15.6848
rfemur 10.5365 -5.23079 23.1875
rtibia -3.49861e-014
rfoot -17.802 -9.85156
rtoes 3.53542
lfemur 19.1522 -5.85904 -9.56073
ltibia -21.9077
lfoot 0.31157 15.1722
ltoes -15.4971
693
root -1.3036 18.1432 6.3275 0.805359 1.56675 -6.16268
lowerback 9.36025 2.20604 3.51217
upperback -1.13851 3.36973 0.349502
thorax -6.26805 1.53813 -2.09427
lowerneck -11.6566 -10.9005 -7.08797
upperneck 26.0571 -16.3455 8.40744
head 11.752 -7.1718 1.89886
rclavicle -4.11981e-014 5.1684e-015
rhumerus -19.4079 4.92432 -56.6611
rradius 113.425
rwrist -68.3646
rhand 0.936825 -39.0695
rfingers 7.12502
rthumb 26.4874 -67.2382
lclavicle -4.11981e-014 5.1684e-015
lhumerus -44.4542 -9.3682 85.0641
lradius 77.8162
lwrist 19.4189
lhand -4.40596 -12.9455
lfingers 7.12502
lthumb 21.3641 15.8967
rfemur 10.696 -4.99903 23.1149
rtibia -3.18055e-015
rfoot -17.7836 -9.90213
rtoes 3.24839
lfemur 19.3712 -5.87682 -9.6733
ltibia -21.8507
lfoot 0.103992 15.3884
ltoes -14.8293
694
root -1.2923 18.1393 6.32735 0.677838 1.34167 -6.20207
lowerback 9.21612 2.18265 3.5486
upperback -1.08526 3.33896 0.413399
thorax -6.13346 1.52691 -2.03489
lowerneck -11.5456 -10.8295 -7.06664
upperneck 26.8527 -16.3808 8.48339
head 12.0517 -7.15319 1.91927
rclavicle 7.70291e-016 -1.19271e-015
rhumerus -20.7346 5.67231 -55.614
rradius 114.562
rwrist -68.5354
rhand 2.98622 -39.4422
rfingers 7.12502
rthumb 28.4474 -67.2997
lclavicle 7.70291e-016 -1.19271e-015
lhumerus -44.5708 -9.32453 85.1166
lradius 77.689
lwrist 19.3861
lhand -4.04425 -12.6825
lfingers 7.12502
lthumb 21.7115 16.1199
rfemur 10.8259 -4.77482 23.1149
rtibia -3.18055e-015
rfoot -17.7617 -9.93785
rtoes 3.08866
lfemur 19.5792 -5.93199 -9.72047
ltibia -21.8088
lfoot -0.105748 15.6019
ltoes -14.3698
